<svg width="52" height="52" viewBox="0 0 52 52" fill="none" xmlns="http://www.w3.org/2000/svg">
<circle cx="26" cy="26" r="26" fill="white"/>
<path d="M26 36.5C25.575 36.5 25.219 36.356 24.932 36.068C24.644 35.781 24.5 35.425 24.5 35V27.5H17C16.575 27.5 16.2185 27.356 15.9305 27.068C15.6435 26.781 15.5 26.425 15.5 26C15.5 25.575 15.6435 25.2185 15.9305 24.9305C16.2185 24.6435 16.575 24.5 17 24.5H24.5V17C24.5 16.575 24.644 16.2185 24.932 15.9305C25.219 15.6435 25.575 15.5 26 15.5C26.425 15.5 26.7815 15.6435 27.0695 15.9305C27.3565 16.2185 27.5 16.575 27.5 17V24.5H35C35.425 24.5 35.781 24.6435 36.068 24.9305C36.356 25.2185 36.5 25.575 36.5 26C36.5 26.425 36.356 26.781 36.068 27.068C35.781 27.356 35.425 27.5 35 27.5H27.5V35C27.5 35.425 27.3565 35.781 27.0695 36.068C26.7815 36.356 26.425 36.5 26 36.5Z" fill="black"/>
</svg>
