<svg width="352" height="449" viewBox="0 0 352 449" fill="none" xmlns="http://www.w3.org/2000/svg">
<path fill-rule="evenodd" clip-rule="evenodd" d="M25 1H327C340.255 1 351 11.7452 351 25V424C351 437.255 340.255 448 327 448H25C11.7452 448 1 437.255 1 424V25C1 11.7452 11.7452 1 25 1ZM0 25C0 11.1929 11.1929 0 25 0H327C340.807 0 352 11.1929 352 25V424C352 437.807 340.807 449 327 449H25C11.1929 449 0 437.807 0 424V25ZM175.5 371C94.5903 371 29 305.41 29 224.5C29 143.59 94.5903 78 175.5 78C256.41 78 322 143.59 322 224.5C322 305.41 256.41 371 175.5 371ZM28 224.5C28 143.038 94.038 77 175.5 77C256.962 77 323 143.038 323 224.5C323 305.962 256.962 372 175.5 372C94.038 372 28 305.962 28 224.5Z" fill="white"/>
</svg>
