<svg width="1440" height="800" viewBox="0 0 1440 800" fill="none" xmlns="http://www.w3.org/2000/svg">
<path fill-rule="evenodd" clip-rule="evenodd" d="M0 359.027C148.665 143.604 415.299 0 719.5 0C1024.38 0 1291.53 144.25 1440 360.48V800H0V359.027Z" fill="#E9C93F"/>
<path fill-rule="evenodd" clip-rule="evenodd" d="M1020.11 385.532C1020.05 385.167 1020 384.806 1019.97 384.444C1019.93 383.902 1019.96 383.356 1019.94 382.814C1019.93 382.584 1019.9 381.984 1019.92 381.898C1020.02 381.146 1020.62 381.031 1020.8 381.011C1020.89 380.998 1021.77 380.9 1021.96 381.877C1022.19 383.072 1022.27 384.276 1022.18 385.454C1022.38 386.457 1022.71 387.455 1023.14 388.358C1024.87 391.952 1028.17 392.301 1031.74 392.268C1032.29 392.26 1032.75 392.691 1032.78 393.237C1032.81 393.788 1032.4 394.264 1031.85 394.314C1029.85 394.507 1026.31 396.108 1025.08 397.776C1024.83 398.125 1024.68 398.967 1024.48 399.793C1024.21 400.938 1023.88 402.072 1023.51 402.548C1023.46 402.622 1022.79 403.378 1022.59 403.489C1022.11 403.752 1021.72 403.6 1021.51 403.46C1021.29 403.321 1021.04 403.045 1020.94 402.589C1020.84 402.113 1020.93 401.136 1020.91 400.926C1020.85 400.166 1020.7 398.675 1020.39 397.394C1020.22 396.704 1020.04 396.067 1019.75 395.751C1018.66 394.581 1016.91 394.753 1015.44 394.946C1015.27 394.967 1015.11 394.991 1014.94 395.012C1014.34 395.188 1013.7 395.32 1013.03 395.398C1012.02 395.517 1011.85 394.585 1011.84 394.523C1011.82 394.387 1011.75 393.689 1012.52 393.41C1012.6 393.381 1013.22 393.246 1013.45 393.192C1013.78 393.118 1014.12 393.061 1014.45 393.008C1017.91 391.931 1019.79 388.909 1020.11 385.532ZM1021.3 389.266C1022.61 391.968 1024.59 393.274 1026.94 393.866H1026.94C1025.47 394.634 1024.14 395.595 1023.43 396.56C1023.16 396.926 1022.91 397.661 1022.69 398.486C1022.57 397.718 1022.41 396.901 1022.19 396.203C1021.95 395.406 1021.62 394.745 1021.25 394.351C1020.54 393.591 1019.65 393.168 1018.7 392.958C1019.84 391.944 1020.71 390.679 1021.3 389.266Z" fill="black"/>
<path fill-rule="evenodd" clip-rule="evenodd" d="M801.128 519.661C789.663 522.985 776.426 526.293 763.692 527.119C752.808 527.824 742.295 526.729 733.69 522.07C732.477 521.414 730.958 521.865 730.302 523.079C729.645 524.292 730.097 525.811 731.31 526.468C740.697 531.549 752.143 532.878 764.015 532.108C776.978 531.268 790.454 527.938 802.149 524.566C803.506 527.315 806.316 529.878 811.266 531.769C818.869 534.674 829.25 534.638 840.186 533.001C856.047 530.628 873.109 524.969 884.079 520.948C884.529 520.784 885.199 520.523 886.019 520.179C886.269 520.731 886.549 521.275 886.859 521.809C889.549 526.463 894.309 530.226 899.159 531.57C929.919 540.092 965.819 529.881 995.049 521.571C996.369 521.194 997.139 519.81 996.769 518.483C996.389 517.156 995.009 516.385 993.679 516.762C965.269 524.84 930.389 535.032 900.489 526.751C896.809 525.731 893.229 522.839 891.189 519.307C890.959 518.913 890.759 518.51 890.569 518.101C894.599 516.104 899.339 513.32 901.889 510.34C904.509 507.285 905.159 504.024 902.879 500.944C900.919 498.311 897.949 498.087 894.859 499.452C891.529 500.914 888.099 504.332 886.989 505.936C884.909 508.932 884.249 512.182 884.629 515.351C883.649 515.765 882.853 516.073 882.362 516.253C871.632 520.185 854.955 525.735 839.446 528.056C829.467 529.55 819.988 529.749 813.05 527.099C810.091 525.968 808.136 524.648 807.075 523.116C809.169 522.49 811.188 521.874 813.117 521.286C816.932 520.123 824.875 518.198 830.55 514.767C835.063 512.039 838.123 508.328 837.945 503.676C837.854 501.286 836.471 499.691 834.27 498.797C830.981 497.462 825.293 498.108 823.175 498.558C816.751 499.92 808.177 505.558 803.935 511.911C802.242 514.446 801.235 517.098 801.128 519.661ZM806.405 518.099C808.22 517.553 809.974 517.017 811.659 516.503C815.22 515.417 822.664 513.692 827.963 510.488C830.769 508.792 833.06 506.76 832.949 503.867C832.94 503.642 832.717 503.578 832.52 503.486C832.215 503.345 831.866 503.248 831.494 503.172C828.977 502.658 825.596 503.155 824.212 503.449C818.822 504.592 811.652 509.357 808.093 514.688C807.341 515.814 806.742 516.961 806.405 518.099ZM889.569 513.049C891.919 511.84 894.379 510.378 896.319 508.787C897.349 507.942 898.219 507.073 898.769 506.171C899.229 505.425 899.409 504.661 898.859 503.923C898.639 503.624 898.309 503.618 897.969 503.674C897.609 503.734 897.239 503.862 896.869 504.027C894.429 505.101 891.909 507.61 891.099 508.787C890.149 510.152 889.679 511.596 889.569 513.049Z" fill="black"/>
</svg>
