<svg xmlns="http://www.w3.org/2000/svg" viewBox="0 0 800 800"><defs><style>.cls-1{fill:#ecc727;}.cls-2,.cls-3,.cls-4,.cls-5,.cls-6{fill:none;stroke-miterlimit:10;}.cls-2{stroke:#ecc727;}.cls-3,.cls-4,.cls-5,.cls-6{stroke:#fff;stroke-linecap:round;}.cls-3{stroke-width:15px;}.cls-4{stroke-width:14.69px;}.cls-5{stroke-width:20px;}.cls-6{stroke-width:16px;}</style></defs><g id="Layer_3" data-name="Layer 3"><path class="cls-1" d="M644.05,399.05l-35.24-55-45.07,6.69-37.13,50.15-6.83-1.67,41.06-172.68s6.41-5.92,7.19-14.34a4.61,4.61,0,0,1-.85.09c-5.33.11-6.38-6.68-3-9.13a4.9,4.9,0,0,1-3-4.92l-.49,0c-4.2.08-5.74-4.13-4.53-7.12a69.86,69.86,0,0,0-11-6.62c-16.44-1.89-47.71-6.45-47.71-6.45l-30.37,22.86s-3.76,4.59-7.45,9.83c2.93,2.22,2.48,7.78-1.49,8.88a5.37,5.37,0,0,1-1.26,6.5c.73,2.55-.37,5.69-3.34,6.4-2.38,19.58-17,70.08-12.19,14.41-4.88-60.39-4.62-21.63-4.62-21.63l-11.05-51.81-42.52-14.91-31.06,16.11-6.35,103.82-25-83.07-28.83-11.05-32.71,7-12.71,28.82L263,324.67l-44-78.44-45.35,10.44L159,308.81l32.32,86.09S226.89,529.6,233.81,557s15.24,71.64,104.37,77.22,145.5,16.07,177.6-20.56,79.92-129.9,79.92-129.9L641,407.18C638.93,404.45,639.93,399.58,644.05,399.05ZM467,225.57h-.22c-6.44.13-6.63-9.87-.2-10h.21C473.19,215.44,473.38,225.44,467,225.57Z"/></g><g id="Layer_12" data-name="Layer 12"><circle class="cls-2" cx="400" cy="400" r="352.07"/></g><g id="Layer_2" data-name="Layer 2"><path class="cls-3" d="M523.18,404l16-26.67c28.42-47.22,64.71-46.11,90.44-9.72s-30.66,104.55-59.34,153S530.49,635,422.87,641.9,241.2,617.13,228.47,529.19c0,0-7.59-69.42-32.6-131s-56-138.8-3.08-150.66c41.76-9.35,59.49,35.64,71,77.53"/><path class="cls-4" d="M347.38,317.37s-12.63-115.81,5.28-142.23S424.3,144,432.29,201.36s.94,104.23-2.09,134.27"/><path class="cls-5" d="M366.59,542.57s9.87-106,115-93.93"/><path class="cls-3" d="M555.75,201.9c10,15,7.46,35.09,4.8,52.15-5.93,52.13-24,99.51-38.4,149.3"/><path class="cls-3" d="M465.3,217.36c4.21-13.46,14-24.66,25.84-31.91,2-1,4.95-2.1,6.93-3.14,10.92-4.22,22-2.45,33,.33,8.06,2.83,16.16,7.67,21.1,14.24"/><path class="cls-3" d="M431.12,335.61c10.3-38.11,20.54-75.33,32.55-112.93"/><path class="cls-6" d="M348.44,329.53s-11-113.1-33-134.85-72.89-13.2-69.78,40.59c2.15,37.1,17.28,91.31,26.46,121.37"/></g></svg>