<svg xmlns="http://www.w3.org/2000/svg" viewBox="0 0 800 800"><defs><style>.cls-1{fill:#ecc727;}.cls-2{fill:#ebc624;}.cls-10,.cls-3,.cls-5,.cls-6,.cls-7,.cls-8,.cls-9{fill:none;stroke-miterlimit:10;}.cls-3{stroke:#fdfefe;}.cls-3,.cls-5,.cls-9{stroke-width:19.3px;}.cls-4{fill:#fff;}.cls-5,.cls-6,.cls-7,.cls-8,.cls-9{stroke:#fff;}.cls-6{stroke-width:18.3px;}.cls-7{stroke-width:19px;}.cls-8,.cls-9{stroke-linecap:round;}.cls-8{stroke-width:19.11px;}.cls-10{stroke:#ecc727;}</style></defs><g id="Layer_8" data-name="Layer 8"><path class="cls-1" d="M212.28,351.33S158,425,195.47,497.46,274,615.27,357.64,625.39s192.92-24,228.58-77.68,41-112.8,32.16-142.59-10-62.08-72.81-68.94-228-12.47-228-12.47Z"/><path class="cls-2" d="M263.48,454.61s73.93,7.28,99.12,78.1c0,0-4.29-61.64,90.24-86.89l.49-14.32-59.52-14.17-33.68,35.32L328.64,438,310,417.33l-17.19,28.49Z"/><path class="cls-2" d="M184.54,282.81s-32.72,21.7-8.94,84.76,56.85,100.27,93,95.1,62-75.46,27.91-140.58S221.39,249.73,184.54,282.81Z"/><path class="cls-2" d="M262.09,337.15s44.94,124.54-35,117.3l32.6,8.69,38.89-32.27L299.86,408l-37.77-70.8"/><path class="cls-3" d="M184.54,282.81s-32.72,21.7-8.94,84.76,56.85,100.27,93,95.1,62-75.46,27.91-140.58S221.39,249.73,184.54,282.81Z"/><path class="cls-2" d="M421.56,198.94s61.41,2.28,59.84,77.69-22.14,153.09-69,121.1S313,203.51,421.56,198.94Z"/><path class="cls-4" d="M278.72,223.81s74-32.33,93.16,47.47,34.21,143.26-1,168.42S287.7,418.45,259.93,329.05,278.72,223.81,278.72,223.81Z"/><path class="cls-2" d="M278.72,223.81s74-32.33,93.16,47.47,34.21,143.26-1,168.42S287.7,418.45,259.93,329.05,278.72,223.81,278.72,223.81Z"/><path class="cls-2" d="M551.3,221.79s55.48,12.57,45.2,85.69-67.8,97.64-67.8,97.64L493.16,368S438.29,193.23,551.3,221.79Z"/><path class="cls-2" d="M443.63,209l1.95,117.84,34.26-2.1s-19.44-37.73,0-70.2-7.21-22-7.21-22Z"/><path class="cls-2" d="M314.36,435.18s115-4.35,3.86-216.55h0l40.63,22.86,27.81,57.3v46.72L369.12,439.7l-54.76-4.52"/><polygon class="cls-2" points="574.64 234.38 565.23 340.26 583.77 345.51 597.77 289.94 574.64 234.38"/><path class="cls-5" d="M361.64,241.49c7.37-23.88,25.58-41.11,59.92-42.55,0,0,61.41,2.28,59.84,77.69-.79,37.7-6.32,76-17.52,100.82"/><path class="cls-6" d="M551.3,221.79s55.48,12.57,45.2,85.69-67.8,97.64-67.8,97.64L493.16,368S438.29,193.23,551.3,221.79Z"/><path class="cls-7" d="M278.72,223.81s74-32.33,93.16,47.47,34.21,143.26-1,168.42S287.7,418.45,259.93,329.05,278.72,223.81,278.72,223.81Z"/><ellipse class="cls-1" cx="479.84" cy="383.3" rx="128.61" ry="58.55"/><path class="cls-2" d="M562.62,345.51s83.9,112.67-69.3,267.34l55.66-24,36.57-39.91,29.27-80.37V394l-27-48.5Z"/><path class="cls-8" d="M188.56,402.94a162,162,0,0,0-4,35.93c0,103,97.22,186.52,217.15,186.52s217.16-83.51,217.16-186.52c0,0,11.94-82.52-53.62-98.61s-221.42-23.77-214,35.74,107.62,64.46,107.62,64.46S452,481.28,481.4,498.6"/><path class="cls-9" d="M414.85,433.58S336.44,451.67,358.31,550"/></g><g id="Layer_2" data-name="Layer 2"><circle class="cls-10" cx="400" cy="400" r="352.07"/></g></svg>