<svg xmlns="http://www.w3.org/2000/svg" viewBox="0 0 800 800"><defs><style>.cls-1{fill:#ebc624;}.cls-2,.cls-4{fill:#ecc727;}.cls-3,.cls-5,.cls-6,.cls-7,.cls-8{fill:none;}.cls-3{stroke:#ecc727;}.cls-3,.cls-4,.cls-5,.cls-6,.cls-7,.cls-8{stroke-miterlimit:10;}.cls-4,.cls-5,.cls-6,.cls-7,.cls-8{stroke:#fff;}.cls-4{stroke-width:17px;}.cls-5{stroke-width:16.66px;}.cls-6,.cls-7,.cls-8{stroke-linecap:round;}.cls-6{stroke-width:16.48px;}.cls-7{stroke-width:16.65px;}.cls-8{stroke-width:16.8px;}</style></defs><g id="Layer_3" data-name="Layer 3"><path class="cls-1" d="M235.27,400S188.4,463.5,220.77,526s67.76,101.63,139.89,110.36,166.42-20.67,197.19-67,35.41-97.3,27.74-123-8.6-53.56-62.81-59.47-196.65-10.76-196.65-10.76Z"/><path class="cls-2" d="M339.84,362.34s-38.31-122-29.1-155.45S354,158.18,392.5,179.57,420.22,275,420.22,275s4.08-118.58,57.18-110.48,64.87,68.65,57.17,131.9S505.2,427.55,505.2,427.55l-97.59,8Z"/></g><g id="Layer_12" data-name="Layer 12"><circle class="cls-3" cx="400" cy="400" r="352.07"/></g><g id="Layer_6" data-name="Layer 6"><path class="cls-4" d="M211.34,340.86s-28.22,18.72-7.71,73.12,49,86.49,80.25,82,53.5-65.09,24.07-121.27S243.13,312.32,211.34,340.86Z"/></g><g id="Layer_8" data-name="Layer 8"><path class="cls-2" d="M320,303.68s-69.81,8.15-48.33,69.71,38.66,110.44,76.25,113.16,52.63-48,33.3-119.5S320,303.68,320,303.68Z"/></g><g id="Layer_5" data-name="Layer 5"><path class="cls-5" d="M320,303.68s-69.81,8.15-48.33,69.71,38.66,110.44,76.25,113.16,52.63-48,33.3-119.5S320,303.68,320,303.68Z"/></g><g id="Layer_4" data-name="Layer 4"><ellipse class="cls-2" cx="466.08" cy="427.55" rx="110.95" ry="50.5"/></g><g id="Layer_2" data-name="Layer 2"><path class="cls-6" d="M214.81,444.49a139.59,139.59,0,0,0-3.47,31c0,88.86,83.87,160.9,187.32,160.9S586,564.34,586,475.48c0,0,10.3-71.19-46.26-85.06s-191-20.51-184.6,30.83S448,476.85,448,476.85s-5.9,35.22,19.46,50.16"/><path class="cls-7" d="M409.74,470.05S342.1,485.66,361,570.51"/><path class="cls-8" d="M320.39,304.68s-25.47-92.87,0-117.36,87-29.94,95.37,33.56l3.63,47.64"/><path class="cls-6" d="M513.9,385.45s9.28-50.36,19.25-124.74S509.22,153.35,456,169.23C409,189.66,420.69,297.09,420.69,297.09l.5,27.13"/></g></svg>